<?xml version="1.0" encoding="utf-8"?>
<!-- Generator: Adobe Illustrator 17.0.0, SVG Export Plug-In . SVG Version: 6.00 Build 0)  -->
<!DOCTYPE svg PUBLIC "-//W3C//DTD SVG 1.1//EN" "http://www.w3.org/Graphics/SVG/1.1/DTD/svg11.dtd">
<svg version="1.1" id="Layer_1" xmlns="http://www.w3.org/2000/svg" xmlns:xlink="http://www.w3.org/1999/xlink" x="0px" y="0px"
	 width="138.583px" height="50.5px" viewBox="0 0 138.583 50.5" enable-background="new 0 0 138.583 50.5" xml:space="preserve">
<g>
	<g>
		<rect x="6.088" y="5.659" fill="#134384" width="7.86" height="39.558"/>
		<path fill="#134384" d="M21.584,5.659h-2.953v6.956h2.953c3.348,0,5.81,1.039,7.385,3.115c1.575,2.077,2.363,5.327,2.363,9.749
			c0,4.44-0.846,7.649-2.538,9.627c-1.691,1.979-4.427,2.968-8.204,2.968h-1.959v7.144h0.75c3.616,0,6.427-0.273,8.433-0.819
			c2.005-0.546,3.795-1.445,5.371-2.698c2.095-1.684,3.693-3.903,4.793-6.66c1.102-2.757,1.652-5.944,1.652-9.561
			c0-6.66-1.491-11.628-4.471-14.905C32.178,7.298,27.653,5.659,21.584,5.659z"/>
	</g>
	<g>
		<path fill="#134384" d="M65.143,23.684c1.54-0.823,2.694-1.871,3.464-3.142c0.77-1.271,1.155-2.748,1.155-4.431
			c0-3.187-1.128-5.72-3.384-7.6c-2.053-1.711-4.773-2.634-8.145-2.788v6.229c0.939,0.185,1.732,0.564,2.358,1.165
			c0.904,0.868,1.356,2.045,1.356,3.531c0,1.791-0.533,3.12-1.598,3.988c-1.065,0.868-2.708,1.302-4.928,1.302h-0.833v5.317
			c0.125,0,0.318-0.009,0.578-0.027c0.259-0.018,0.452-0.027,0.577-0.027c2.417,0,4.239,0.488,5.465,1.463
			c1.227,0.976,1.84,2.413,1.84,4.311c0,1.897-0.523,3.353-1.571,4.364c-0.812,0.785-1.898,1.256-3.243,1.432v6.382
			c3.787-0.196,6.83-1.305,9.111-3.344c2.524-2.256,3.787-5.308,3.787-9.157c0-2.095-0.506-3.898-1.517-5.411
			C68.603,25.729,67.112,24.543,65.143,23.684z"/>
		<path fill="#134384" d="M51.554,17.587c0-1.844,0.465-3.267,1.396-4.27c0.538-0.58,1.221-0.972,2.017-1.216V5.822
			c-2.988,0.329-5.39,1.329-7.187,3.024c-2.229,2.104-3.388,5.125-3.478,9.064h7.251V17.587z"/>
		<path fill="#134384" d="M54.968,38.6c-1.016-0.255-1.865-0.694-2.5-1.368c-1.021-1.084-1.54-2.699-1.558-4.848h-7.385v0.161
			c0,4.046,1.168,7.166,3.504,9.359c1.953,1.832,4.605,2.888,7.939,3.19V38.6z"/>
	</g>
	<path fill="#134384" d="M132.362,27.582c-0.949-1.548-2.363-2.761-4.243-3.639c1.539-0.788,2.694-1.831,3.465-3.129
		c0.77-1.298,1.154-2.833,1.154-4.605c0-3.312-1.133-5.904-3.396-7.774c-1.942-1.604-4.53-2.515-7.754-2.744v6.347
		c0.913,0.19,1.695,0.529,2.314,1.057c0.967,0.824,1.451,1.952,1.451,3.384c0,1.468-0.471,2.605-1.41,3.411
		s-2.279,1.208-4.016,1.208s-3.07-0.398-4.001-1.195c-0.931-0.796-1.396-1.938-1.396-3.424c0-1.396,0.487-2.515,1.464-3.357
		c0.631-0.544,1.417-0.893,2.328-1.085V5.687c-3.215,0.225-5.798,1.143-7.74,2.761c-2.256,1.88-3.383,4.467-3.383,7.761
		c0,1.862,0.357,3.393,1.074,4.592c0.715,1.2,1.879,2.247,3.49,3.142c-1.951,1.003-3.379,2.251-4.283,3.746
		c-0.904,1.495-1.355,3.344-1.355,5.546c0,3.778,1.208,6.724,3.625,8.835c2.112,1.847,4.97,2.886,8.572,3.119v-6.504
		c-1.157-0.217-2.113-0.662-2.838-1.368c-1.049-1.021-1.572-2.471-1.572-4.351c0-1.736,0.561-3.151,1.68-4.243
		c1.118-1.092,2.582-1.638,4.391-1.638c1.808,0,3.258,0.537,4.35,1.611s1.639,2.498,1.639,4.27c0,1.844-0.533,3.285-1.598,4.324
		c-0.734,0.716-1.672,1.167-2.785,1.389v6.502c3.532-0.245,6.368-1.289,8.506-3.138c2.461-2.13,3.691-5.066,3.691-8.809
		C133.785,31.016,133.311,29.131,132.362,27.582z"/>
	<path fill="#134384" d="M101.183,27.582c-0.949-1.548-2.363-2.761-4.243-3.639c1.539-0.788,2.694-1.831,3.465-3.129
		c0.77-1.298,1.154-2.833,1.154-4.605c0-3.312-1.133-5.904-3.396-7.774c-1.942-1.604-4.53-2.515-7.754-2.744v6.347
		c0.913,0.19,1.695,0.529,2.314,1.057c0.967,0.824,1.451,1.952,1.451,3.384c0,1.468-0.471,2.605-1.41,3.411
		s-2.279,1.208-4.016,1.208s-3.07-0.398-4.001-1.195c-0.931-0.796-1.396-1.938-1.396-3.424c0-1.396,0.487-2.515,1.464-3.357
		c0.631-0.544,1.417-0.893,2.328-1.085V5.687c-3.215,0.225-5.798,1.143-7.74,2.761c-2.256,1.88-3.383,4.467-3.383,7.761
		c0,1.862,0.357,3.393,1.074,4.592c0.715,1.2,1.879,2.247,3.49,3.142c-1.951,1.003-3.379,2.251-4.283,3.746
		c-0.904,1.495-1.355,3.344-1.355,5.546c0,3.778,1.208,6.724,3.625,8.835c2.112,1.847,4.97,2.886,8.572,3.119v-6.504
		c-1.157-0.217-2.113-0.662-2.838-1.368c-1.049-1.021-1.572-2.471-1.572-4.351c0-1.736,0.561-3.151,1.68-4.243
		c1.118-1.092,2.582-1.638,4.391-1.638c1.808,0,3.258,0.537,4.35,1.611s1.639,2.498,1.639,4.27c0,1.844-0.533,3.285-1.598,4.324
		c-0.734,0.716-1.672,1.167-2.785,1.389v6.502c3.532-0.245,6.368-1.289,8.506-3.138c2.461-2.13,3.691-5.066,3.691-8.809
		C102.606,31.016,102.131,29.131,101.183,27.582z"/>
</g>
</svg>
